# xmcd
#
# Track frame offsets: 
#        150
#        10560
#        21128
#        34918
#        44541
#        53909
#        64163
#        73960
#        84586
#        92376
#        104434
#        113623
#        124839
#        135358
#        147270
#        154806
#        166382
#        174291
#        184824
#        194534
#        205662
#        215311
#        223931
#        235520
#        245672
#        255869
#        265547
#        275365
#
# Disc length: 3852 seconds
#
# Revision: 0
# Processed by: cddbd v1.5.2PL0 Copyright (c) Steve Scherf et al.
# Submitted via: ExactAudioCopyFreeDBPlugin 1.0
#
DISCID=860f0a1c
DTITLE=Various Artist - By The Bayou [Ace Records]
DYEAR=2013
DGENRE=Rhythm and Blues
TTITLE0=Peto Marlow and The Rhythm Kings - Rock and Roll Beat
TTITLE1=Wiley Jeffers - My Love is True (aka "My Love is Just for You"
TTITLE1=)
TTITLE2=Ken Lindsey - Crazy Drerams
TTITLE3=Vince Anthony and The Blue Notes - Clarabel
TTITLE4=Bobby Charles - Teenagers
TTITLE5=Gene Terry and The Downbeats - Cinderella Cinderella
TTITLE6=Jay Richards - Wiggle Rock
TTITLE7=Rocket Morgan - Gonna Walk Back Home (aka "Walkin' Home")
TTITLE8=Johnny Jano - Oh Baby, Where Can My Baby Be
TTITLE9=Pee Wee Trahan - Store About Mama
TTITLE10=Burnell Martin - Burnell's Boogie
TTITLE11=Merton Thibodeaux - Big Basile
TTITLE12=Joe Bonsall and His French Accordion - Linda Lee (What You Do t
TTITLE12=o Me)
TTITLE13=Pee Wee Trahan - I'm a Mojo Man
TTITLE14=Rick Johnson - Eenie Meenie Minie Mo
TTITLE15=Rocket Morgan - Medley:  Sweet Love on My Mind - Baby, Let's 
TTITLE15=Play House
TTITLE16=Dayward Penny - I'm Coming Home
TTITLE17=Jim Oertling - Louisiana Gambler
TTITLE18=Tommy Strange - Nervous and Shakin' All Over
TTITLE19=Doug Charles and The Boogie Kings - Talk to Your Daughter
TTITLE20=Warren Storm - Come Back to Me Baby
TTITLE21=(unknown artist) - I'm in Orbit
TTITLE22=Johnny Jano - You're the Only Girl
TTITLE23=Al Ferrier - Blues Stop Knockin'
TTITLE24=Port Arthur Band - Do Baby Do
TTITLE25=Warren Storm - I'm a Little Boy Looking for Love
TTITLE26=Johnny Bass - Rockin' and Reelin'
TTITLE27=Larry Hart - Oh Nellie
EXTD=
EXTT0=
EXTT1=
EXTT2=
EXTT3=
EXTT4=
EXTT5=
EXTT6=
EXTT7=
EXTT8=
EXTT9=
EXTT10=
EXTT11=
EXTT12=
EXTT13=
EXTT14=
EXTT15=
EXTT16=
EXTT17=
EXTT18=
EXTT19=
EXTT20=
EXTT21=
EXTT22=
EXTT23=
EXTT24=
EXTT25=
EXTT26=
EXTT27=
PLAYORDER=
